<svg width="19" height="19" viewBox="0 0 19 19" fill="none" xmlns="http://www.w3.org/2000/svg"><path d="M17.393 14.511c0 .285-.064.578-.198.863a3.266 3.266 0 0 1-.538.808 3.569 3.569 0 0 1-1.299.934c-.475.198-.99.3-1.543.3-.808 0-1.67-.19-2.581-.577-.91-.388-1.821-.91-2.724-1.568a22.752 22.752 0 0 1-2.596-2.216 22.497 22.497 0 0 1-2.21-2.589c-.648-.902-1.17-1.805-1.55-2.7-.38-.902-.57-1.765-.57-2.588 0-.539.094-1.053.284-1.528a3.65 3.65 0 0 1 .91-1.322c.507-.5 1.062-.744 1.647-.744.222 0 .444.047.642.142.205.095.388.238.53.443l1.837 2.59c.142.197.245.38.316.553.072.167.111.333.111.483 0 .19-.055.38-.166.562a2.693 2.693 0 0 1-.443.562l-.602.626a.424.424 0 0 0-.127.316c0 .064.008.12.024.183.024.063.048.11.063.158.143.261.388.601.737 1.013.356.412.736.831 1.147 1.251.428.42.84.808 1.26 1.164.41.348.751.586 1.02.728.04.016.088.04.143.063a.546.546 0 0 0 .198.032.436.436 0 0 0 .325-.134l.601-.594c.198-.198.388-.349.57-.444a1.06 1.06 0 0 1 .562-.166c.15 0 .309.032.483.103s.356.174.554.309l2.62 1.86c.207.143.35.309.436.507.08.198.127.396.127.617Z" stroke="#E4A80B" stroke-width="1.5" stroke-miterlimit="10"/></svg>