<?xml version="1.0" encoding="utf-8"?><svg viewBox="0 0 2000 800" xmlns="http://www.w3.org/2000/svg" xmlns:xlink="http://www.w3.org/1999/xlink"><style>:root>svg{display:none}:root>svg:target{display:block}</style><svg fill="none" viewBox="0 0 20 20" id="link" xmlns="http://www.w3.org/2000/svg"><path d="M11.287 8.713a3.64 3.64 0 0 0-5.147 0l-2.574 2.574a3.64 3.64 0 0 0 5.147 5.147L10 15.147"/><path d="M8.713 11.287a3.64 3.64 0 0 0 5.147 0l2.574-2.574a3.64 3.64 0 1 0-5.147-5.147L10 4.853"/></svg><svg aria-label="Telegram" viewBox="0 0 512 512" id="soc-tg" xmlns="http://www.w3.org/2000/svg"><rect width="512" height="512" rx="15%" fill="#37aee2"/><path fill="#c8daea" d="M199 404c-11 0-10-4-13-14l-32-105 245-144"/><path fill="#a9c9dd" d="M199 404c7 0 11-4 16-8l45-43-56-34"/><path fill="#f6fbfe" d="m204 319 135 99c14 9 26 4 30-14l55-258c5-22-9-32-24-25L79 245c-21 8-21 21-4 26l83 26 190-121c9-5 17-3 11 4"/></svg><svg aria-label="WhatsApp" viewBox="0 0 512 512" id="soc-wa" xmlns="http://www.w3.org/2000/svg"><rect width="512" height="512" rx="15%" fill="#25d366"/><path fill="#25d366" stroke="#fff" stroke-width="26" d="m123 393 14-65a138 138 0 1 1 50 47z"/><path fill="#fff" d="M308 273c-3-2-6-3-9 1l-12 16c-3 2-5 3-9 1-15-8-36-17-54-47-1-4 1-6 3-8l9-14c2-2 1-4 0-6l-12-29c-3-8-6-7-9-7h-8c-2 0-6 1-10 5-22 22-13 53 3 73 3 4 23 40 66 59 32 14 39 12 48 10 11-1 22-10 27-19 1-3 6-16 2-18"/></svg><svg fill="none" viewBox="0 0 120 120" id="tech1" xmlns="http://www.w3.org/2000/svg"><path d="M22.133 102.004 13.706 7.5h92.588l-8.438 94.489L59.944 112.5l-37.812-10.496Z" fill="#E44F26"/><path d="m60 104.467 30.638-8.493 7.207-80.745H60v89.238Z" fill="#F1662A"/><path d="M60 50.276H44.663l-1.058-11.869H60v-11.59H30.937l.278 3.112 2.846 31.939H60V50.276Zm0 30.101-.053.016-12.907-3.484-.825-9.244H34.579l1.623 18.195 23.745 6.593.053-.016v-12.06Z" fill="#EBEBEB"/><path d="M59.959 50.276v11.591H74.23L72.89 76.901l-12.93 3.488v12.06l23.763-6.589.173-1.957 2.723-30.514.285-3.113H59.959Zm0-23.46v11.591h27.997l.233-2.602.529-5.876.277-3.113H59.959Z" fill="#fff"/></svg><svg viewBox="0 0 400 400" id="tech10" xmlns="http://www.w3.org/2000/svg"><path d="M0 200V0h400v400H0" style="fill:#007acc"/><path d="M87.7 200.7V217h52v148h36.9V217h52v-16c0-9 0-16.3-.4-16.5 0-.3-31.7-.4-70.2-.4l-70 .3v16.4l-.3-.1zM321.4 184c10.2 2.4 18 7 25 14.3 3.7 4 9.2 11 9.6 12.8 0 .6-17.3 12.3-27.8 18.8-.4.3-2-1.4-3.6-4-5.2-7.4-10.5-10.6-18.8-11.2-12-.8-20 5.5-20 16 0 3.2.6 5 1.8 7.6 2.7 5.5 7.7 8.8 23.2 15.6 28.6 12.3 41 20.4 48.5 32 8.5 13 10.4 33.4 4.7 48.7-6.4 16.7-22 28-44.3 31.7-7 1.2-23 1-30.5-.3-16-3-31.3-11-40.7-21.3-3.7-4-10.8-14.7-10.4-15.4l3.8-2.4 15-8.7 11.3-6.6 2.6 3.5c3.3 5.2 10.7 12.2 15 14.6 13 6.7 30.4 5.8 39-2 3.7-3.4 5.3-7 5.3-12 0-4.6-.7-6.7-3-10.2-3.2-4.4-9.6-8-27.6-16-20.7-8.8-29.5-14.4-37.7-23-4.7-5.2-9-13.3-11-20-1.5-5.8-2-20-.6-25.7 4.3-20 19.4-34 41-38 7-1.4 23.5-.8 30.4 1l-.2.2z" style="fill:#fff"/></svg><svg viewBox="0 -6 256 256" preserveAspectRatio="xMidYMid" id="tech11" xmlns="http://www.w3.org/2000/svg"><path d="M177.381 169.733c9.447-.978 16.614-9.122 16.288-18.896-.325-9.773-8.47-17.592-18.243-17.592h-.651c-10.1.326-17.918 8.796-17.592 18.895.326 4.887 2.28 9.122 5.212 12.054-11.076 21.828-28.016 37.791-53.426 51.148-17.266 9.122-35.183 12.38-53.1 10.1-14.66-1.955-26.062-8.47-33.23-19.222-10.424-15.963-11.401-33.23-2.605-50.496 6.19-12.38 15.962-21.502 22.152-26.063-1.303-4.235-3.258-11.402-4.235-16.614-47.237 34.207-42.35 80.468-28.016 102.295 10.75 16.29 32.577 26.389 56.684 26.389 6.515 0 13.03-.652 19.546-2.28 41.699-8.145 73.299-32.905 91.216-69.718zm57.336-40.397c-24.759-28.995-61.245-44.958-102.944-44.958h-5.212c-2.932-5.864-9.122-9.774-15.963-9.774h-.652C99.848 74.93 92.03 83.4 92.355 93.5c.326 9.773 8.47 17.592 18.243 17.592h.651c7.167-.326 13.357-4.887 15.963-11.077h5.864c24.759 0 48.214 7.167 69.39 21.176 16.288 10.751 28.016 24.76 34.531 41.7 5.538 13.683 5.212 27.04-.652 38.443-9.121 17.266-24.432 26.714-44.63 26.714-13.031 0-25.41-3.91-31.926-6.842-3.583 3.258-10.099 8.47-14.66 11.729 14.009 6.515 28.343 10.099 42.025 10.099 31.274 0 54.404-17.267 63.2-34.533 9.447-18.896 8.795-51.474-15.637-79.165zM69.225 175.27c.326 9.774 8.47 17.592 18.243 17.592h.652c10.099-.325 17.917-8.796 17.591-18.895-.325-9.774-8.47-17.592-18.243-17.592h-.651c-.652 0-1.63 0-2.28.325-13.357-22.153-18.895-46.26-16.94-72.323 1.302-19.547 7.818-36.488 19.22-50.497 9.447-12.054 27.69-17.918 40.07-18.243 34.531-.652 49.19 42.351 50.168 59.618 4.235.977 11.402 3.258 16.289 4.887C189.434 27.366 156.857 0 125.584 0c-29.32 0-56.359 21.176-67.11 52.451-14.985 41.7-5.212 81.771 13.031 113.372-1.628 2.28-2.606 5.864-2.28 9.448z" fill="#764ABC"/></svg><svg viewBox="0 0 32 32" fill="none" id="tech12" xmlns="http://www.w3.org/2000/svg"><circle cx="16" cy="16" r="14" fill="#0769AD"/><path d="M22.657 13.421c1.257 0 2.408-.42 3.298-1.114-.924 1.217-2.454 2.013-4.186 2.013-2.821 0-5.108-2.112-5.108-4.717 0-1.445.703-2.738 1.81-3.603a4.453 4.453 0 0 0-.922 2.704c0 2.605 2.287 4.717 5.108 4.717Z" fill="#78CFF5"/><path d="M25.906 16.659c-1.355 1.063-3.11 1.704-5.025 1.704-4.294 0-7.774-3.218-7.774-7.188 0-1.54.524-2.966 1.415-4.136-1.68 1.318-2.748 3.286-2.748 5.484 0 3.97 3.48 7.188 7.774 7.188 2.628 0 4.951-1.206 6.358-3.052Z" fill="#78CFF5"/><path d="M26 20.77c-1.931 1.843-4.606 2.984-7.563 2.984-5.887 0-10.66-4.526-10.66-10.108 0-1.77.479-3.432 1.321-4.878C7.183 10.595 6 13.113 6 15.892 6 21.474 10.773 26 16.66 26c4.023 0 7.525-2.112 9.34-5.23Z" fill="#78CFF5"/></svg><svg viewBox="0 0 100 100" id="tech13"><path d="M73.56 13.32H58.14a8.54 8.54 0 0 0-16.27 0H26.44a11 11 0 0 0-11 11v57.31a11 11 0 0 0 11 11h47.12a11 11 0 0 0 11-11V24.32a11 11 0 0 0-11-11Zm-30.92 2a1 1 0 0 0 1-.79 6.54 6.54 0 0 1 12.78 0 1 1 0 0 0 1 .79h5.38v6.55a3 3 0 0 1-3 3H40.25a3 3 0 0 1-3-3v-6.55Zm39.92 66.31a9 9 0 0 1-9 9H26.44a9 9 0 0 1-9-9V24.32a9 9 0 0 1 9-9h8.81v6.55a5 5 0 0 0 5 5h19.5a5 5 0 0 0 5-5v-6.55h8.81a9 9 0 0 1 9 9Z"/><path style="transform:translateX(-25px)" d="M71.6 45.92H54a1 1 0 0 0 0 2h17.6a1 1 0 0 0 0-2Z"/><path d="M71.6 45.92H54a1 1 0 0 0 0 2h17.6a1 1 0 0 0 0-2Z"/><path style="transform:translateX(-25px)" d="M71.1 69.49H53.45a1 1 0 1 0 0 2H71.1a1 1 0 0 0 0-2Z"/><path d="M71.1 69.49H53.45a1 1 0 1 0 0 2H71.1a1 1 0 0 0 0-2Z"/></svg><svg viewBox="-0.5 0 257 257" preserveAspectRatio="xMidYMid" id="tech14" xmlns="http://www.w3.org/2000/svg"><defs><linearGradient x1="-.828%" y1="7.652%" x2="57.636%" y2="78.411%" id="ia"><stop stop-color="#41D1FF" offset="0%"/><stop stop-color="#BD34FE" offset="100%"/></linearGradient><linearGradient x1="43.376%" y1="2.242%" x2="50.316%" y2="89.03%" id="ib"><stop stop-color="#FFEA83" offset="0%"/><stop stop-color="#FFDD35" offset="8.333%"/><stop stop-color="#FFA800" offset="100%"/></linearGradient></defs><path d="M255.153 37.938 134.897 252.976c-2.483 4.44-8.862 4.466-11.382.048L.875 37.958c-2.746-4.814 1.371-10.646 6.827-9.67l120.385 21.517a6.537 6.537 0 0 0 2.322-.004l117.867-21.483c5.438-.991 9.574 4.796 6.877 9.62Z" fill="url(#ia)"/><path d="M185.432.063 96.44 17.501a3.268 3.268 0 0 0-2.634 3.014l-5.474 92.456a3.268 3.268 0 0 0 3.997 3.378l24.777-5.718c2.318-.535 4.413 1.507 3.936 3.838l-7.361 36.047c-.495 2.426 1.782 4.5 4.151 3.78l15.304-4.649c2.372-.72 4.652 1.36 4.15 3.788l-11.698 56.621c-.732 3.542 3.979 5.473 5.943 2.437l1.313-2.028 72.516-144.72c1.215-2.423-.88-5.186-3.54-4.672l-25.505 4.922c-2.396.462-4.435-1.77-3.759-4.114l16.646-57.705c.677-2.35-1.37-4.583-3.769-4.113Z" fill="url(#ib)"/></svg><svg viewBox="0 0 128 128" id="tech15" xmlns="http://www.w3.org/2000/svg"><path d="M117.29 98.1 66.24 127v-22.51L98 87l19.29 11.1Zm3.5-3.16V34.55l-18.68 10.8v38.81l18.67 10.77ZM10.71 98.1l51 28.88v-22.49L29.94 87Zm-3.5-3.16V34.55l18.68 10.8v38.81Zm2.19-64.3L61.76 1v21.76L28.21 41.21l-.27.15Zm109.18 0L66.24 1v21.76L99.79 41.2l.27.15 18.54-10.71Z" style="fill:#8ed6fb"/><path d="M61.76 99.37 30.37 82.1V47.92L61.76 66Zm4.48 0 31.39-17.25v-34.2L66.24 66ZM32.5 44 64 26.66 95.5 44 64 62.16 32.5 44Z" style="fill:#1c78c0"/></svg><svg viewBox="0 0 512 75" id="tech16" xmlns="http://www.w3.org/2000/svg"><path fill="#5A29E4" d="M254.114 9.182v60.165l-6.557 5.282v-50.05h-12.343l18.9-15.397ZM481.537 0c5.492 0 10.59.828 15.297 2.484 4.528 1.564 8.433 3.323 11.717 5.275l.573.347-6.799 12.943c-.62-.507-1.496-1.088-2.627-1.741l-.643-.364-.693-.378-.743-.393c-2.092-1.133-4.576-2.092-7.453-2.876a30.487 30.487 0 0 0-8.89-1.308c-8.193 0-12.29 2.31-12.29 6.93 0 2.701 1.482 4.619 4.445 5.752l.676.245.717.249.76.253.804.256.846.261.888.265c.152.045.305.09.46.134l.953.27.995.276 1.038.278 1.08.283 1.124.287 1.765.438 1.23.297c5.142 1.307 9.588 2.789 13.336 4.445 3.675 1.587 6.51 3.694 8.504 6.322l.255.346c2.092 2.702 3.138 6.275 3.138 10.72 0 5.404-1.395 9.762-4.184 13.075-2.702 3.224-6.275 5.578-10.72 7.06-4.446 1.394-9.24 2.091-14.382 2.091-5.927 0-11.81-.828-17.65-2.484-5.562-1.577-10.53-3.707-14.906-6.391l-.652-.407 7.06-13.728c1.133 1.133 3.007 2.397 5.622 3.791 2.702 1.395 5.84 2.572 9.413 3.53 3.574.96 7.365 1.439 11.375 1.439 8.018 0 12.028-2.136 12.028-6.407 0-2.876-1.874-4.924-5.622-6.144l-.901-.317-.947-.321-.991-.326-1.037-.332-1.082-.336-1.127-.342-.58-.172-1.195-.349-1.24-.354-1.286-.359-1.33-.364-2.08-.555-.716-.188c-7.496-1.917-13.074-4.358-16.735-7.321-3.574-3.051-5.36-7.41-5.36-13.075 0-5.055 1.263-9.282 3.79-12.681 2.616-3.4 6.102-5.971 10.46-7.714C471.47.872 476.308 0 481.537 0ZM360.292.13c5.531 0 10.581 1.008 15.146 3.023l.545.246c4.707 2.092 8.716 4.925 12.028 8.498 3.4 3.487 6.012 7.453 7.842 11.898 1.83 4.445 2.748 8.977 2.748 13.597 0 4.794-.958 9.413-2.876 13.859-1.917 4.358-4.622 8.28-8.109 11.766-3.399 3.4-7.449 6.101-12.156 8.106-4.706 2.005-9.849 3.007-15.427 3.007-5.753 0-10.982-1.002-15.689-3.007-4.707-2.092-8.762-4.88-12.162-8.367-3.399-3.574-6.014-7.583-7.844-12.028-1.828-4.446-2.746-9.022-2.746-13.728 0-4.794.96-9.414 2.877-13.859a36.412 36.412 0 0 1 7.638-11.3l.47-.467c3.487-3.486 7.58-6.232 12.287-8.236 4.707-2.005 9.85-3.007 15.428-3.007ZM44.844.524l31.77 73.084H59.88L52.558 56.48H24.187l-7.321 17.127H0L31.9.523h12.944Zm93.58 0L158.56 26.41 178.693.523h17.127l-28.894 37 27.979 36.084h-17.127l-19.22-24.84-19.087 24.84h-17.389l28.11-36.084-29.025-37h17.258ZM266.106.188v48.905h12.689L259.56 64.877V4.744l6.544-4.556Zm93.928 14.063c-4.794 0-8.893 1.133-12.292 3.399-3.313 2.266-5.84 5.142-7.583 8.629-1.744 3.486-2.615 7.104-2.615 10.852 0 3.922.918 7.67 2.748 11.243 1.828 3.487 4.399 6.32 7.711 8.498 3.4 2.18 7.452 3.269 12.159 3.269 4.794 0 8.847-1.133 12.159-3.4 3.315-2.353 5.84-5.273 7.583-8.76 1.743-3.573 2.617-7.233 2.617-10.981 0-3.922-.915-7.627-2.745-11.113-1.83-3.487-4.445-6.276-7.847-8.368-3.313-2.179-7.276-3.268-11.895-3.268ZM38.438 19.74 27.717 42.753h21.05l-10.33-23.01Z"/></svg><svg viewBox="-64 0 384 384" preserveAspectRatio="xMidYMid" id="tech17" xmlns="http://www.w3.org/2000/svg"><path d="M64 384c35.328 0 64-28.672 64-64v-64H64c-35.328 0-64 28.672-64 64s28.672 64 64 64Z" fill="#0ACF83"/><path d="M0 192c0-35.328 28.672-64 64-64h64v128H64c-35.328 0-64-28.672-64-64Z" fill="#A259FF"/><path d="M0 64C0 28.672 28.672 0 64 0h64v128H64C28.672 128 0 99.328 0 64Z" fill="#F24E1E"/><path d="M128 0h64c35.328 0 64 28.672 64 64s-28.672 64-64 64h-64V0Z" fill="#FF7262"/><path d="M256 192c0 35.328-28.672 64-64 64s-64-28.672-64-64 28.672-64 64-64 64 28.672 64 64Z" fill="#1ABCFE"/></svg><svg viewBox="-155 0 566 566" preserveAspectRatio="xMinYMin meet" id="tech18" xmlns="http://www.w3.org/2000/svg"><path d="m197.28 548.749 5.427-90.43 14.985-25.58s-34.106 13.952-91.205 13.952c-57.1 0-90.689-13.694-90.689-13.694l16.794 27.904 5.941 87.848c0 9.418 31.059 17.052 69.374 17.052 38.313 0 69.373-7.634 69.373-17.052m-17.119-422.295 11.391-45.025 63.081-66.376L238.007.892l-66.784 70.707-13.226 53.793a886.14 886.14 0 0 0-29.873-.497c-70.336 0-127.355 8.016-127.355 17.902 0 9.887 57.019 17.902 127.355 17.902 70.335 0 127.353-8.015 127.353-17.902 0-7.28-30.924-13.546-75.316-16.343" fill="#D34A47"/><path d="M173.535 151.669s-2.467.553-9.724.584c-7.259.03-12.413-.047-14.466-1.917-.552-.502-.854-1.499-.851-2.174.006-1.285.918-2.042 2.08-2.516l1.099 1.724c-.478.165-.751.36-.752.568-.004.976 7.422 1.644 13.102 1.572 5.681-.07 12.545-.538 12.551-1.5 0-.291-.519-.565-1.422-.781l1.094-1.712c1.472.457 2.757 1.34 2.754 2.868-.014 2.598-3.32 2.993-5.465 3.284" fill="#FFF"/><path d="M254.509 15.184c1.586-1.832-.821-6.518-5.376-10.465C244.576.774 239.596-.94 238.007.892c-1.587 1.832.821 6.518 5.378 10.463 4.555 3.946 9.537 5.662 11.124 3.829m-60.263 312.681c-1.495-14.384 31.462-35.216 23.004-35.883-18.208 1.041-27.27 21.338-36.431 42.596-3.357 7.791-14.844 41.013-22.378 36.923-7.532-4.088 9.765-31.407 14.613-47.631-5.594 4.102-26.109 20.041-31.396 5.114-8.5 7.219-26.663 11.13-24.614-7.833-4.522 8.01-14.671 19.193-26.853 14.546-15.998-6.101 9.27-57.062 15.553-54.491 6.284 2.57-1.268 14.179-3.246 18.687-4.35 9.921-9.375 22.393-6.018 24.946 5.751 4.374 21.401-16.547 21.749-17.007 2.927-3.867 11.266-29.166 17.987-26.261 6.721 2.905-16.764 36.308-7.983 42.937 1.771 1.338 9.017-.825 13.425-5.594 2.852-3.085 1.871-9.918 11.378-32.59 9.507-22.671 17.98-50.905 24.5-48.754 6.52 2.15 1.146 16.641-1.193 22.043-10.976 25.354-29.956 67.241-21.005 64.07 8.951-3.17 13.612-3.356 22.377-13.613 8.765-10.257 8.361-27.152 14.203-26.793 5.844.36 4.863 5.777 3.446 9.902 5.75-6.58 27.256-20.438 32.448-6.713 6.15 16.249-30.769 39.72-21.564 38.523 8.975-1.167 23.515-10.376 29.723-18.749l17.088-153.626s-17.195 14.23-126.589 14.23c-109.395 0-124.811-13.934-124.811-13.934l14.548 140.224c7.722-21.947 26.059-66.339 54.963-64.849 13.148.678 30.7 25.995 15.665 26.853-6.364.362-7.01-12.637-14.546-14.546-5.438-1.378-13.009 3.043-17.902 7.833-9.758 9.55-30.745 47.229-27.972 66.014 3.533 23.949 33.048-8.322 38.042-17.903 3.517-6.749 5.893-26.745 13.585-24.647 7.693 2.098-.671 22.734-6.247 40.979-6.264 20.487-9.557 42.098-17.408 39.612-7.852-2.484 4.938-28.932 4.475-33.566-7.38 6.809-20.976 24.047-38.37 15.515l9.035 87.078s24.013 18.973 96.35 18.973c72.337 0 97.239-18.677 97.239-18.677l11.219-100.857c-9.179 8.938-38.229 24.81-40.089 6.919" fill="#D34A47"/></svg><svg fill="none" viewBox="0 0 120 119" id="tech2" xmlns="http://www.w3.org/2000/svg"><path d="M22.133 101.154 13.71 7.438h92.58l-8.434 93.701-37.912 10.423-37.812-10.408Z" fill="#1572B6"/><path d="m60 103.597 30.638-8.423 7.207-80.072H60v88.495Z" fill="#33A9DC"/><path d="M60 49.054h15.338l1.057-11.77H60V25.79h29.063l-.278 3.082-2.846 31.677H60V49.054Z" fill="#fff"/><path d="m60.071 78.904-.052.015-12.908-3.458-.825-9.167H34.65l1.624 18.047 23.741 6.538.056-.015v-11.96Z" fill="#EBEBEB"/><path d="m74.351 60.062-1.395 15.391-12.926 3.459v11.96l23.76-6.53.176-1.942 2.014-22.339H74.351Z" fill="#fff"/><path d="M60.041 25.79v11.494H32.044L31.81 34.7l-.529-5.828-.277-3.082h29.036ZM60 49.053v11.495H47.254l-.233-2.585-.525-5.827-.277-3.083H60Z" fill="#EBEBEB"/></svg><svg fill="none" viewBox="0 0 120 120" id="tech3" xmlns="http://www.w3.org/2000/svg"><path d="M7.5 7.5h105v105H7.5V7.5Z" fill="#F5DE19"/><path d="M78.034 89.531a10.747 10.747 0 0 0 9.75 6c4.087 0 6.701-2.044 6.701-4.875 0-3.375-2.685-4.582-7.185-6.551l-2.468-1.058c-7.124-3.033-11.85-6.832-11.85-14.864 0-7.4 5.626-13.036 14.45-13.036a14.583 14.583 0 0 1 14.032 7.902L93.75 67.98a6.709 6.709 0 0 0-6.334-4.23 4.295 4.295 0 0 0-4.721 4.23c0 2.959 1.834 4.159 6.068 6l2.467 1.057c8.385 3.597 13.125 7.26 13.125 15.5 0 8.883-6.979 13.75-16.35 13.75a18.958 18.958 0 0 1-17.981-10.09l8.01-4.666Zm-34.857.855c1.55 2.749 2.96 5.074 6.35 5.074 3.24 0 5.287-1.267 5.287-6.199V55.71h9.866v33.682c0 10.216-6 14.865-14.734 14.865a15.319 15.319 0 0 1-14.801-9l8.032-4.87Z" fill="#000"/></svg><svg fill="none" viewBox="0 0 113 101" id="tech4" xmlns="http://www.w3.org/2000/svg"><g clip-path="url(#pa)"><path d="M92.906 32.703a75.63 75.63 0 0 0-3.637-1.15c.205-.842.394-1.674.561-2.49 2.754-13.415.954-24.221-5.194-27.78-5.894-3.41-15.534.147-25.27 8.65-.96.84-1.898 1.704-2.814 2.591a68.967 68.967 0 0 0-1.872-1.735C44.477 1.696 34.25-2.136 28.108 1.432c-5.89 3.422-7.633 13.58-5.154 26.293.246 1.26.525 2.512.835 3.757a74.694 74.694 0 0 0-4.182 1.32C7.644 36.988.005 43.548.005 50.352c0 7.029 8.201 14.078 20.661 18.352 1.01.346 2.029.665 3.055.96-.334 1.34-.63 2.69-.887 4.047-2.363 12.493-.518 22.411 5.355 25.811 6.066 3.511 16.248-.097 26.161-8.795a64.273 64.273 0 0 0 2.358-2.181c.992.96 2.01 1.893 3.055 2.797 9.603 8.293 19.087 11.642 24.955 8.233 6.06-3.521 8.03-14.176 5.473-27.14a64.56 64.56 0 0 0-.678-3.031 68.311 68.311 0 0 0 2.101-.66c12.953-4.307 21.381-11.27 21.381-18.392 0-6.83-7.886-13.434-20.09-17.65Zm-2.81 31.444c-.618.206-1.252.403-1.898.596-1.43-4.543-3.36-9.375-5.721-14.367 2.253-4.872 4.109-9.642 5.499-14.156 1.156.336 2.277.69 3.359 1.063 10.456 3.613 16.833 8.954 16.833 13.07 0 4.384-6.888 10.075-18.072 13.794Zm-4.64 9.23c1.13 5.732 1.291 10.915.543 14.967-.673 3.64-2.026 6.068-3.7 7.04-3.56 2.069-11.176-.62-19.388-7.713a69.171 69.171 0 0 1-2.841-2.6c3.184-3.495 6.366-7.558 9.471-12.07 5.463-.487 10.623-1.282 15.303-2.368.225.91.43 1.824.612 2.743Zm-46.93 21.65c-3.48 1.232-6.25 1.268-7.925.298-3.564-2.063-5.046-10.027-3.025-20.71.24-1.262.515-2.518.825-3.765 4.628 1.028 9.751 1.767 15.226 2.212 3.127 4.416 6.4 8.474 9.7 12.027a59.616 59.616 0 0 1-2.153 1.99c-4.384 3.846-8.777 6.575-12.648 7.947ZM22.228 64.12c-5.51-1.89-10.06-4.346-13.179-7.027-2.803-2.408-4.217-4.8-4.217-6.74 0-4.13 6.134-9.397 16.364-12.976a69.786 69.786 0 0 1 3.89-1.229c1.414 4.616 3.268 9.442 5.506 14.323-2.267 4.952-4.148 9.856-5.576 14.526a59.217 59.217 0 0 1-2.788-.877Zm5.463-37.325c-2.124-10.892-.713-19.108 2.836-21.17 3.78-2.196 12.138.935 20.948 8.787.575.513 1.14 1.036 1.696 1.57-3.283 3.538-6.527 7.566-9.626 11.955-5.314.494-10.4 1.288-15.077 2.352a71.098 71.098 0 0 1-.777-3.494ZM76.43 38.874a154.15 154.15 0 0 0-3.436-5.672c3.605.458 7.06 1.065 10.303 1.808-.974 3.133-2.188 6.407-3.616 9.765a169.037 169.037 0 0 0-3.251-5.901Zm-19.876-19.43c2.227 2.421 4.456 5.124 6.65 8.056-4.45-.21-8.906-.211-13.355-.002a106.8 106.8 0 0 1 6.705-8.054ZM36.551 38.907a143.402 143.402 0 0 0-3.19 5.864 107.16 107.16 0 0 1-3.59-9.813 108.629 108.629 0 0 1 10.244-1.764 142.55 142.55 0 0 0-3.464 5.713Zm3.567 28.95c-3.701-.415-7.19-.976-10.414-1.68a108.714 108.714 0 0 1 3.663-10.012 142.57 142.57 0 0 0 6.75 11.692Zm16.57 13.746a108.547 108.547 0 0 1-6.799-8.166c2.164.085 4.37.129 6.611.129 2.303 0 4.58-.052 6.82-.152-2.2 3-4.421 5.745-6.633 8.189ZM79.725 55.99c1.51 3.455 2.783 6.797 3.794 9.976-3.276.75-6.813 1.354-10.54 1.803 1.194-1.9 2.351-3.824 3.469-5.77a154.137 154.137 0 0 0 3.277-6.01Zm-7.458 3.588a158.94 158.94 0 0 1-5.42 8.778c-3.444.245-6.896.367-10.348.365-3.516 0-6.937-.11-10.23-.325a137.495 137.495 0 0 1-5.523-8.791 136.325 136.325 0 0 1-4.82-9.138 137.645 137.645 0 0 1 4.806-9.141 136.17 136.17 0 0 1 5.478-8.754 136.13 136.13 0 0 1 10.288-.388h.001c3.498 0 6.948.135 10.308.392a145.955 145.955 0 0 1 5.444 8.724 159.07 159.07 0 0 1 4.871 9.099 146.162 146.162 0 0 1-4.855 9.18Zm9.957-54.098c3.784 2.19 5.255 11.021 2.878 22.603a64.934 64.934 0 0 1-.508 2.255c-4.688-1.086-9.778-1.894-15.108-2.396-3.104-4.437-6.321-8.471-9.551-11.964a70.966 70.966 0 0 1 2.599-2.392c8.342-7.286 16.138-10.162 19.69-8.106ZM56.5 40.226c5.572 0 10.09 4.534 10.09 10.127 0 5.593-4.518 10.127-10.09 10.127s-10.09-4.534-10.09-10.127c0-5.593 4.518-10.127 10.09-10.127Z" fill="#00D8FF"/></g><defs><clipPath id="pa"><path fill="#fff" d="M0 0h113v101H0z"/></clipPath></defs></svg><svg fill="none" viewBox="0 0 117 87" id="tech5" xmlns="http://www.w3.org/2000/svg"><g clip-path="url(#qa)"><path d="M100.673 50.077c-4.07.02-7.608.992-10.57 2.43-1.087-2.135-2.173-4.036-2.365-5.431-.213-1.627-.469-2.62-.213-4.564.255-1.944 1.406-4.712 1.385-4.923-.021-.211-.256-1.204-2.6-1.225-2.344-.022-4.369.443-4.603 1.056-.235.613-.682 2.007-.98 3.444-.405 2.113-4.688 9.656-7.139 13.607-.789-1.542-1.47-2.894-1.62-3.972-.213-1.627-.469-2.62-.213-4.564s1.407-4.712 1.385-4.923c-.021-.211-.256-1.205-2.6-1.225-2.344-.022-4.369.443-4.603 1.056-.234.613-.49 2.05-.98 3.444-.49 1.395-6.18 13.988-7.672 17.242a96.837 96.837 0 0 1-1.896 3.909s-.022.063-.086.169c-.208.404-.42.805-.639 1.204v.02c-.32.572-.66 1.1-.831 1.1-.128 0-.362-1.522.043-3.592.852-4.374 2.876-11.178 2.855-11.41 0-.127.384-1.31-1.32-1.923-1.663-.613-2.26.401-2.41.401-.148 0-.255.36-.255.36s1.854-7.649-3.538-7.649c-3.366 0-8.012 3.655-10.314 6.951a2876.3 2876.3 0 0 0-7.842 4.248c-1.257.697-2.557 1.394-3.772 2.05-.085-.085-.17-.191-.256-.275-6.52-6.91-18.582-11.79-18.07-21.066.191-3.381 1.363-12.256 23.164-23.031 17.943-8.77 32.221-6.34 34.693-.951 3.537 7.69-7.65 21.974-26.19 24.045-7.076.782-10.784-1.923-11.721-2.937-.98-1.057-1.13-1.12-1.492-.909-.597.318-.213 1.268 0 1.817.554 1.437 2.834 3.973 6.691 5.22 3.41 1.098 11.7 1.711 21.737-2.135 11.23-4.31 20.01-16.29 17.432-26.327C70.69.634 53.641-2.726 37.51 2.958 27.92 6.339 17.52 11.663 10.04 18.594 1.154 26.834-.253 33.997.322 36.998 2.39 47.647 17.201 54.578 23.125 59.71c-.299.17-.576.318-.81.445-2.962 1.457-14.257 7.31-17.07 13.5-3.196 7.016.512 12.045 2.963 12.72 7.607 2.093 15.428-1.668 19.626-7.88 4.198-6.213 3.687-14.284 1.748-17.982-.022-.042-.043-.084-.086-.127.768-.443 1.556-.908 2.323-1.352a113.53 113.53 0 0 1 4.284-2.388c-.725 1.966-1.258 4.311-1.513 7.692-.32 3.972 1.32 9.127 3.473 11.156.96.888 2.088.909 2.813.909 2.515 0 3.645-2.071 4.902-4.522 1.534-3 2.92-6.487 2.92-6.487S46.97 74.82 51.66 74.82c1.704 0 3.43-2.198 4.198-3.317v.02s.042-.063.128-.21l.276-.445v-.041c.682-1.184 2.217-3.867 4.497-8.326 2.94-5.747 5.775-12.93 5.775-12.93s.256 1.753 1.13 4.669c.511 1.712 1.576 3.592 2.429 5.409-.682.951-1.108 1.479-1.108 1.479l.021.021c-.554.718-1.15 1.5-1.811 2.261-2.323 2.747-5.093 5.896-5.477 6.804-.448 1.077-.341 1.86.512 2.493.617.465 1.725.528 2.855.465 2.089-.148 3.559-.655 4.283-.972 1.13-.401 2.451-1.014 3.687-1.923 2.28-1.67 3.665-4.057 3.537-7.205-.064-1.732-.639-3.465-1.342-5.092.213-.296.405-.592.618-.887 3.601-5.22 6.393-10.946 6.393-10.946s.256 1.754 1.13 4.67c.426 1.48 1.3 3.085 2.066 4.648-3.388 2.726-5.476 5.895-6.222 7.966-1.342 3.846-.299 5.578 1.683 5.98.895.19 2.174-.233 3.112-.634 1.193-.38 2.6-1.035 3.942-2.008 2.28-1.668 4.475-3.993 4.348-7.14-.064-1.438-.448-2.854-.98-4.227 2.876-1.183 6.584-1.838 11.315-1.289 10.144 1.183 12.147 7.459 11.763 10.1-.383 2.641-2.514 4.078-3.217 4.522-.704.444-.938.591-.874.908.085.465.426.444 1.023.36.831-.148 5.328-2.135 5.519-6.994.32-6.212-5.647-12.995-16.196-12.931ZM22.421 76.235c-3.367 3.634-8.055 5.007-10.08 3.845-2.173-1.247-1.32-6.614 2.814-10.459 2.514-2.345 5.753-4.522 7.906-5.853.49-.296 1.215-.718 2.088-1.246.15-.085.235-.127.235-.127l.511-.317c1.513 5.493.064 10.332-3.474 14.157ZM46.93 59.71c-1.173 2.832-3.623 10.08-5.115 9.678-1.279-.338-2.067-5.832-.256-11.262.916-2.726 2.856-5.98 3.985-7.247 1.833-2.03 3.858-2.706 4.347-1.88.619 1.077-2.237 8.937-2.962 10.711Zm20.223 9.593c-.49.254-.959.423-1.172.296-.15-.085.213-.423.213-.423s2.536-2.704 3.538-3.93c.575-.718 1.257-1.563 1.982-2.514v.275c0 3.232-3.155 5.409-4.561 6.296Zm15.6-3.528c-.363-.254-.3-1.1.915-3.74.47-1.036 1.577-2.768 3.474-4.438.213.677.362 1.332.341 1.944-.021 4.078-2.962 5.6-4.73 6.234Z" fill="#CD6799"/></g><defs><clipPath id="qa"><path fill="#fff" d="M0 0h117v87H0z"/></clipPath></defs></svg><svg fill="none" viewBox="0 0 105 105" id="tech6" xmlns="http://www.w3.org/2000/svg"><g clip-path="url(#ra)"><path d="M103.02 47.822 57.176 1.98a6.762 6.762 0 0 0-9.563 0l-9.52 9.52L50.17 23.576a8.027 8.027 0 0 1 8.261 1.925 8.04 8.04 0 0 1 1.908 8.312l11.639 11.639c2.815-.97 6.064-.343 8.313 1.91a8.043 8.043 0 0 1 0 11.378 8.046 8.046 0 0 1-13.133-8.751L56.305 39.135l-.002 28.562a8.13 8.13 0 0 1 2.128 1.522 8.047 8.047 0 0 1 0 11.38c-3.144 3.143-8.238 3.143-11.377 0a8.046 8.046 0 0 1 2.633-13.136V38.635a7.948 7.948 0 0 1-2.633-1.756c-2.382-2.378-2.954-5.872-1.734-8.796L33.415 16.178 1.981 47.61a6.764 6.764 0 0 0 0 9.566l45.845 45.842a6.764 6.764 0 0 0 9.563 0l45.63-45.63a6.766 6.766 0 0 0 0-9.566" fill="#DE4C36"/></g><defs><clipPath id="ra"><path fill="#fff" d="M0 0h105v105H0z"/></clipPath></defs></svg><svg viewBox="0 0 88 88" id="tech7" xmlns="http://www.w3.org/2000/svg"><path fill-rule="evenodd" clip-rule="evenodd" d="M44 0C19.69 0 0 19.69 0 44c0 19.47 12.595 35.915 30.085 41.745 2.2.385 3.025-.935 3.025-2.09 0-1.045-.055-4.51-.055-8.195C22 77.495 19.14 72.765 18.26 70.29c-.495-1.265-2.64-5.17-4.51-6.215-1.54-.825-3.74-2.86-.055-2.915 3.465-.055 5.94 3.19 6.765 4.51 3.96 6.655 10.285 4.785 12.815 3.63.385-2.86 1.54-4.785 2.805-5.885-9.79-1.1-20.02-4.895-20.02-21.725 0-4.785 1.705-8.745 4.51-11.825-.44-1.1-1.98-5.61.44-11.66 0 0 3.685-1.155 12.1 4.51 3.52-.99 7.26-1.485 11-1.485s7.48.495 11 1.485c8.415-5.72 12.1-4.51 12.1-4.51 2.42 6.05.88 10.56.44 11.66 2.805 3.08 4.51 6.985 4.51 11.825 0 16.885-10.285 20.625-20.075 21.725 1.595 1.375 2.97 4.015 2.97 8.14 0 5.885-.055 10.615-.055 12.1 0 1.155.825 2.53 3.025 2.09A44.073 44.073 0 0 0 88 44C88 19.69 68.31 0 44 0Z"/></svg><svg viewBox="0 0 16 16" fill="none" id="tech8" xmlns="http://www.w3.org/2000/svg"><path fill="#FC6D26" d="M14.975 8.904 14.19 6.55l-1.552-4.67a.268.268 0 0 0-.255-.18.268.268 0 0 0-.254.18l-1.552 4.667H5.422L3.87 1.879a.267.267 0 0 0-.254-.179.267.267 0 0 0-.254.18l-1.55 4.667-.784 2.357a.515.515 0 0 0 .193.583l6.78 4.812 6.778-4.812a.516.516 0 0 0 .196-.583z"/><path fill="#E24329" d="m8 14.296 2.578-7.75H5.423L8 14.296z"/><path fill="#FC6D26" d="m8 14.296-2.579-7.75H1.813L8 14.296z"/><path fill="#FCA326" d="m1.81 6.549-.784 2.354a.515.515 0 0 0 .193.583L8 14.3 1.81 6.55z"/><path fill="#E24329" d="M1.812 6.549h3.612L3.87 1.882a.268.268 0 0 0-.254-.18.268.268 0 0 0-.255.18L1.812 6.549z"/><path fill="#FC6D26" d="m8 14.296 2.578-7.75h3.614L8 14.296z"/><path fill="#FCA326" d="m14.19 6.549.783 2.354a.514.514 0 0 1-.193.583L8 14.296l6.188-7.747h.001z"/><path fill="#E24329" d="M14.19 6.549h-3.61l1.551-4.667a.267.267 0 0 1 .255-.18c.115 0 .217.073.254.18l1.552 4.667z"/></svg><svg viewBox="0 -58 256 256" preserveAspectRatio="xMidYMid" id="tech9" xmlns="http://www.w3.org/2000/svg"><path d="M78.066 92.588c12.818 0 23.209-10.391 23.209-23.21 0-12.817-10.391-23.208-23.21-23.208-12.817 0-23.208 10.39-23.208 23.209 0 12.818 10.391 23.209 23.209 23.209Zm-54.857 46.417c12.818 0 23.209-10.39 23.209-23.209 0-12.817-10.391-23.208-23.21-23.208C10.392 92.588 0 102.978 0 115.796c0 12.818 10.39 23.21 23.209 23.21Zm209.582 0c12.818 0 23.209-10.39 23.209-23.209 0-12.817-10.39-23.208-23.209-23.208-12.818 0-23.209 10.39-23.209 23.208 0 12.818 10.391 23.21 23.21 23.21Z"/><path d="M156.565 70.357c-.742-7.754-1.12-14.208-7.06-18.744-7.522-5.744-16.044-2.017-26.54-5.806C112.65 43.312 105 34.155 105 23.24 105 10.405 115.578 0 128.626 0c9.665 0 17.974 5.707 21.634 13.883 5.601 10.64 1.96 21.467 8.998 26.921 8.333 6.458 19.568 1.729 32.104 7.848a23.614 23.614 0 0 1 9.84 8.425A22.858 22.858 0 0 1 205 69.718c0 10.915-7.65 20.073-17.964 22.568-10.497 3.789-19.019.062-26.541 5.806-8.46 6.46-3.931 17.267-10.826 28.682-3.913 7.518-11.867 12.663-21.043 12.663-13.048 0-23.626-10.405-23.626-23.24 0-9.323 5.582-17.364 13.638-21.066 12.536-6.12 23.77-1.39 32.104-7.848 4.807-3.726 5.823-9.473 5.823-16.926Z" fill="#D0021B"/></svg><svg fill="none" viewBox="0 0 19 19" id="tel" xmlns="http://www.w3.org/2000/svg"><path d="M17.393 14.511c0 .285-.064.578-.198.863a3.266 3.266 0 0 1-.538.808 3.569 3.569 0 0 1-1.299.934c-.475.198-.99.3-1.543.3-.808 0-1.67-.19-2.581-.577-.91-.388-1.821-.91-2.724-1.568a22.752 22.752 0 0 1-2.596-2.216 22.497 22.497 0 0 1-2.21-2.589c-.648-.902-1.17-1.805-1.55-2.7-.38-.902-.57-1.765-.57-2.588 0-.539.094-1.053.284-1.528.19-.483.491-.926.91-1.322.507-.5 1.062-.744 1.647-.744.222 0 .444.047.642.142.205.095.388.238.53.443l1.837 2.59c.142.197.245.38.316.553.072.167.111.333.111.483 0 .19-.055.38-.166.562a2.693 2.693 0 0 1-.443.562l-.602.626a.424.424 0 0 0-.127.316c0 .064.008.12.024.183.024.063.048.11.063.158.143.261.388.601.737 1.013.356.412.736.831 1.147 1.251.428.42.84.808 1.26 1.164.41.348.751.586 1.02.728.04.016.088.04.143.063a.546.546 0 0 0 .198.032.436.436 0 0 0 .325-.134l.601-.594c.198-.198.388-.349.57-.444.182-.11.364-.166.562-.166.15 0 .309.032.483.103s.356.174.554.309l2.62 1.86c.207.143.35.309.436.507.08.198.127.396.127.617Z" stroke="#E4A80B" stroke-width="1.5" stroke-miterlimit="10"/></svg></svg>